<?xml version="1.0" standalone="no"?>
<!DOCTYPE svg PUBLIC "-//W3C//DTD SVG 20010904//EN"
 "http://www.w3.org/TR/2001/REC-SVG-20010904/DTD/svg10.dtd">
<svg version="1.0" xmlns="http://www.w3.org/2000/svg"
 width="1856.000000pt" height="1856.000000pt" viewBox="0 0 1856.000000 1856.000000"
 preserveAspectRatio="xMidYMid meet">
<metadata>
Created by potrace 1.14, written by Peter Selinger 2001-2017
</metadata>
<g transform="translate(0.000000,1856.000000) scale(0.100000,-0.100000)"
fill="#000000" stroke="none">
<path d="M3300 12793 c-19 -1 -87 -8 -150 -14 -306 -29 -636 -110 -938 -230
-1135 -452 -1961 -1474 -2161 -2674 -37 -222 -46 -336 -46 -600 0 -262 8 -361
46 -590 191 -1151 967 -2150 2039 -2623 329 -146 662 -235 1060 -284 85 -11
1241 -13 6135 -13 5777 0 6036 1 6170 18 1011 132 1867 638 2449 1447 350 486
564 1053 638 1685 16 142 17 587 0 730 -96 831 -440 1553 -1012 2125 -508 508
-1175 856 -1870 975 -305 53 176 49 -6325 51 -3300 0 -6016 -1 -6035 -3z
m4445 -1518 c250 -33 442 -88 641 -184 560 -270 881 -764 966 -1486 21 -174
17 -932 -6 -1100 -48 -361 -161 -672 -334 -915 -86 -122 -250 -286 -372 -372
-245 -174 -572 -291 -926 -333 -167 -19 -491 -19 -658 0 -517 61 -955 278
-1224 608 -221 270 -353 592 -413 1012 -16 117 -24 857 -10 1019 29 328 85
551 203 796 90 188 172 305 318 450 127 128 234 209 380 288 225 122 529 205
845 232 146 12 441 4 590 -15z m5201 -71 c300 -103 429 -457 278 -762 -47 -97
-120 -169 -220 -219 l-78 -38 -400 -5 -401 -5 -5 -1360 -5 -1360 -23 -75 c-95
-307 -329 -464 -672 -447 -301 14 -503 166 -586 443 -17 55 -19 148 -24 1429
l-5 1370 -395 5 c-427 6 -425 6 -525 65 -90 53 -178 163 -216 270 -26 76 -36
214 -20 297 39 203 210 376 401 407 31 5 664 8 1445 7 1384 -1 1390 -1 1451
-22z"/>
<path d="M7241 10234 c-278 -60 -448 -285 -513 -679 -21 -128 -17 -850 5 -977
59 -337 205 -550 431 -628 192 -66 412 -40 569 67 147 99 243 271 294 522 16
75 18 147 18 546 0 446 -1 463 -23 565 -61 273 -177 446 -357 536 -124 61
-283 79 -424 48z"/>
</g>
</svg>
