<?xml version="1.0" encoding="UTF-8"?>
<svg width="232px" height="88px" viewBox="0 0 232 88" version="1.1" xmlns="http://www.w3.org/2000/svg" xmlns:xlink="http://www.w3.org/1999/xlink">
    <!-- Generator: Sketch 57.1 (83088) - https://sketch.com -->
    <title>Custom Preset</title>
    <desc>Created with Sketch.</desc>
    <defs>
        <path d="M67.5083183,49.328125 L67.5083183,43.78125 C67.5083183,28.1171875 76.5317558,18.78125 92.3130058,18.78125 C108.055193,18.78125 117.078631,28.15625 117.078631,43.78125 L117.078631,49.328125 C117.078631,64.875 108.055193,74.171875 92.3130058,74.171875 C76.5708183,74.171875 67.5083183,64.8359375 67.5083183,49.328125 Z M83.9145683,43.6640625 L83.9145683,49.2890625 C83.9145683,56.7890625 86.9614433,61.0859375 92.3130058,61.0859375 C97.6645683,61.0859375 100.672381,56.7890625 100.672381,49.2890625 L100.672381,43.6640625 C100.672381,36.1640625 97.6255058,31.8671875 92.3130058,31.8671875 C86.9614433,31.8671875 83.9145683,36.1640625 83.9145683,43.6640625 Z M143.285156,73.390625 C138.167969,73.390625 135.082031,70.1875 135.082031,64.875 L135.082031,32.8046875 L126.683594,32.8046875 C123.207031,32.8046875 120.472656,29.9140625 120.472656,26.2421875 C120.472656,22.5703125 123.207031,19.6796875 126.683594,19.6796875 L160.003906,19.6796875 C163.480469,19.6796875 166.097656,22.53125 166.097656,26.2421875 C166.097656,29.953125 163.480469,32.8046875 160.003906,32.8046875 L151.488281,32.8046875 L151.488281,64.875 C151.488281,70.1484375 148.363281,73.390625 143.285156,73.390625 Z" id="path-1"></path>
    </defs>
    <g id="Custom-Preset" stroke="none" stroke-width="1" fill="none" fill-rule="evenodd">
        <rect id="Rectangle" fill="#FFFFFF" x="0" y="0" width="232" height="88" rx="44"></rect>
        <g id="OT" fill-rule="nonzero">
            <use fill="#FFFFFF" xlink:href="#path-1"></use>
            <use fill="#022B3A" xlink:href="#path-1"></use>
        </g>
    </g>
</svg>